<svg width="16" height="21" viewBox="0 0 16 21" fill="none" xmlns="http://www.w3.org/2000/svg">
<path opacity="0.3" d="M8.57995 13.5741C8.37995 14.4941 7.63995 15.5341 6.19995 15.8841C9.09995 18.2541 11.84 16.0841 11.76 13.5641C11.76 11.5141 8.80995 10.3541 8.48995 8.48407C7.61995 10.7441 8.89995 12.1441 8.57995 13.5741Z" fill="#FFA31A"/>
<path d="M15.48 10.854C13.91 6.77405 8.32 6.55405 9.67 0.624047C9.77 0.184047 9.3 -0.155953 8.92 0.0740467C5.29 2.21405 2.68 6.50405 4.87 12.124C5.05 12.584 4.51 13.014 4.12 12.714C2.31 11.344 2.12 9.37405 2.28 7.96405C2.34 7.44405 1.66 7.19405 1.37 7.62405C0.69 8.66405 0 10.344 0 12.874C0.38 18.474 5.11 20.194 6.81 20.414C9.24 20.724 11.87 20.274 13.76 18.544C15.84 16.614 16.6 13.534 15.48 10.854ZM6.2 15.884C7.64 15.534 8.38 14.494 8.58 13.574C8.91 12.144 7.62 10.744 8.49 8.48405C8.82 10.354 11.76 11.524 11.76 13.564C11.84 16.094 9.1 18.264 6.2 15.884Z" fill="#FFA31A"/>
</svg>
